<svg width="25" height="24" viewBox="0 0 25 24" fill="none" xmlns="http://www.w3.org/2000/svg">
    <path d="M22 1H12C11.17 1 10.5 1.67 10.5 2.5V5H13C14.08 5 14.99 5.69 15.34 6.65C15.86 6.43 16.44 6.31 17.1 6.31C18.18 6.31 19.05 6.58 19.7 7.13C20.35 7.68 20.68 8.47 20.68 9.5V14.08C20.68 14.42 20.7 14.75 20.73 15.06C20.76 15.37 20.83 15.69 20.92 15.99H19.14C19.08 15.7 19.04 15.45 19 15.23C18.97 15.01 18.95 14.79 18.94 14.57C18.62 15.03 18.2 15.41 17.68 15.72C17.16 16.03 16.6 16.18 16.01 16.18C15.82 16.18 15.66 16.15 15.49 16.13V18H21.99C22.82 18 23.49 17.33 23.49 16.5V2.5C23.5 1.67 22.83 1 22 1Z" fill="#3F3F3F"/>
    <path d="M18.96 10.4297V9.48969C18.96 8.92969 18.79 8.48969 18.45 8.16969C18.11 7.84969 17.63 7.67969 17.01 7.67969C16.45 7.67969 16 7.81969 15.65 8.10969C15.59 8.15969 15.55 8.20969 15.5 8.25969V10.6197C15.97 10.5097 16.49 10.4397 17.08 10.4397H18.96V10.4297Z" fill="#3F3F3F"/>
    <path d="M15.5 14.5796C15.72 14.6696 15.97 14.7296 16.28 14.7296C16.91 14.7296 17.47 14.5696 17.98 14.2496C18.49 13.9296 18.81 13.5596 18.96 13.1496V11.5996H17.02C16.4 11.5996 15.9 11.7496 15.5 12.0196V14.5796Z" fill="#3F3F3F"/>
    <path d="M12.88 6H3.13C2.23 6 1.5 6.69 1.5 7.55V21.46C1.5 22.31 2.23 23 3.13 23H12.88C13.78 23 14.51 22.31 14.51 21.45V7.55C14.5 6.69 13.77 6 12.88 6ZM5.56 7.55H10.44C10.89 7.55 11.25 7.9 11.25 8.32C11.25 8.74 10.89 9.09 10.44 9.09H5.56C5.11 9.09 4.75 8.74 4.75 8.32C4.75 7.9 5.11 7.55 5.56 7.55ZM12.88 11.41C12.88 11.49 12.86 11.58 12.83 11.66C12.82 11.68 12.83 11.69 12.82 11.71C12.76 11.83 12.02 13.44 10.46 15.51C10.54 19.21 12.27 19.92 12.35 19.95C12.76 20.1 12.98 20.54 12.83 20.94C12.71 21.25 12.4 21.45 12.07 21.45C11.99 21.45 11.9 21.44 11.82 21.41C11.72 21.38 9.63 20.66 9.01 17.29C7.8 18.64 6.29 20.05 4.43 21.31C4.29 21.41 4.12 21.45 3.96 21.45C3.71 21.45 3.46 21.34 3.3 21.13C3.04 20.78 3.12 20.3 3.49 20.05C7.43 17.38 9.77 13.91 10.77 12.18H3.97C3.52 12.18 3.16 11.83 3.16 11.41C3.16 10.98 3.52 10.64 3.97 10.64H12.1C12.21 10.64 12.32 10.66 12.42 10.7C12.42 10.7 12.42 10.7 12.43 10.7C12.52 10.74 12.61 10.8 12.68 10.87C12.72 10.91 12.74 10.95 12.77 10.99C12.8 11.03 12.83 11.07 12.85 11.11C12.89 11.19 12.9 11.29 12.91 11.38C12.87 11.39 12.88 11.4 12.88 11.41Z" fill="#3F3F3F"/>
</svg>
