<svg width="25" height="24" viewBox="0 0 25 24" fill="none" xmlns="http://www.w3.org/2000/svg">
    <path d="M8 13C10.4853 13 12.5 10.7614 12.5 8C12.5 5.23858 10.4853 3 8 3C5.51472 3 3.5 5.23858 3.5 8C3.5 10.7614 5.51472 13 8 13Z" fill="#3F3F3F"/>
    <path d="M8 13C4.5 13 1.5 15 1.5 21H14.5C14.5 15 11.5 13 8 13Z" fill="#3F3F3F"/>
    <path d="M18 14.1C19.933 14.1 21.5 12.1748 21.5 9.8C21.5 7.42518 19.933 5.5 18 5.5C16.067 5.5 14.5 7.42518 14.5 9.8C14.5 12.1748 16.067 14.1 18 14.1Z" fill="#3F3F3F"/>
    <path d="M18.0002 14C16.8002 14 15.6002 14.4 14.7002 15.2C15.5002 16.6 16.0002 18.4 16.0002 21H23.5002C23.5002 16.3 21.0002 14 18.0002 14Z" fill="#3F3F3F"/>
</svg>
