<svg width="25" height="24" viewBox="0 0 25 24" fill="none" xmlns="http://www.w3.org/2000/svg">
    <path d="M9.10988 16.8804C9.94988 16.8804 10.6399 16.6404 11.1799 16.1604C11.7199 15.6804 11.9899 15.0104 11.9899 14.1704C11.9899 13.6904 11.8799 13.2504 11.6499 12.8604C11.4299 12.4704 11.0399 12.1804 10.4999 12.0004C10.9499 11.8004 11.2899 11.5104 11.5099 11.1304C11.7399 10.7504 11.8499 10.3704 11.8499 9.99035C11.8499 9.15035 11.5999 8.50035 11.0999 8.04035C10.5999 7.58035 9.93988 7.36035 9.09988 7.36035C8.26988 7.36035 7.58988 7.60035 7.07988 8.09035C6.56988 8.59035 6.31988 9.18035 6.33988 9.88035L6.34988 9.92035H7.51988C7.51988 9.45035 7.65988 9.07035 7.94988 8.78035C8.23988 8.49035 8.61988 8.35035 9.09988 8.35035C9.59988 8.35035 9.97988 8.49035 10.2399 8.76035C10.4999 9.03035 10.6299 9.44035 10.6299 9.97035C10.6299 10.4704 10.5199 10.8504 10.2899 11.1304C10.0599 11.4104 9.67988 11.5504 9.13988 11.5504H8.06988V12.5304H9.13988C9.69988 12.5304 10.1099 12.6604 10.3799 12.9304C10.6399 13.2004 10.7699 13.6204 10.7699 14.1904C10.7699 14.7504 10.6199 15.1704 10.3299 15.4604C10.0399 15.7504 9.62988 15.8904 9.10988 15.8904C8.59988 15.8904 8.19988 15.7504 7.90988 15.4604C7.61988 15.1704 7.46988 14.7904 7.46988 14.3004H6.29988L6.27988 14.3404C6.25988 15.1204 6.51988 15.7404 7.05988 16.1904C7.59988 16.6504 8.27988 16.8804 9.10988 16.8804Z" fill="#3F3F3F"/>
    <path d="M14.2998 8.32012C13.7798 8.95012 13.5298 9.86012 13.5298 11.0301V13.2201C13.5298 14.4001 13.7898 15.3001 14.3098 15.9301C14.8298 16.5601 15.5298 16.8801 16.4198 16.8801C17.3098 16.8801 18.0098 16.5701 18.5198 15.9401C19.0298 15.3101 19.2898 14.4101 19.2898 13.2301V11.0401C19.2898 9.86012 19.0298 8.96012 18.5198 8.33012C17.9998 7.70012 17.2998 7.38012 16.4098 7.38012C15.5098 7.37012 14.8098 7.68012 14.2998 8.32012ZM17.6298 8.96012C17.9098 9.36012 18.0598 9.97012 18.0598 10.7601V13.4701C18.0598 14.2701 17.9198 14.8801 17.6398 15.2801C17.3598 15.6901 16.9498 15.8901 16.4098 15.8901C15.8698 15.8901 15.4598 15.6901 15.1698 15.2801C14.8798 14.8701 14.7398 14.2701 14.7398 13.4701V10.7601C14.7398 9.96012 14.8798 9.36012 15.1598 8.96012C15.4398 8.56012 15.8498 8.35012 16.3898 8.35012C16.9298 8.35012 17.3498 8.55012 17.6298 8.96012Z" fill="#3F3F3F"/>
    <path d="M20.5 1V20C20.5 21.1 19.6 22 18.5 22H6.5C5.4 22 4.5 21.1 4.5 20V1H3.5V20C3.5 21.66 4.84 23 6.5 23H18.5C20.16 23 21.5 21.66 21.5 20V1H20.5Z" fill="#3F3F3F"/>
    <path d="M7.5 1H6.5V2H7.5V1Z" fill="#3F3F3F"/>
    <path d="M9.5 1H8.5V2H9.5V1Z" fill="#3F3F3F"/>
    <path d="M18.5 1H17.5V2H18.5V1Z" fill="#3F3F3F"/>
    <path d="M16.5 1H15.5V2H16.5V1Z" fill="#3F3F3F"/>
    <path d="M14.5 1H13.5V2H14.5V1Z" fill="#3F3F3F"/>
    <path d="M11.5 1H10.5V2H11.5V1Z" fill="#3F3F3F"/>
</svg>
